HIERARCHY
ROOT root
{
	OFFSET 0.000000 0.000000 0.000000
	CHANNELS 6 Xposition Yposition Zposition Zrotation Yrotation Xrotation
	JOINT lhip
	{
		OFFSET 0.058581 -0.082280 -0.017664
		CHANNELS 3 Zrotation Yrotation Xrotation
		JOINT lknee
		{
			OFFSET 0.043451 -0.386469 0.008037
			CHANNELS 3 Zrotation Yrotation Xrotation
			JOINT lankle
			{
				OFFSET -0.014790 -0.426874 -0.037428
				CHANNELS 3 Zrotation Yrotation Xrotation
				JOINT ltoe
				{
					OFFSET 0.041054 -0.060286 0.122042
					CHANNELS 3 Zrotation Yrotation Xrotation
					End Site
					{
						OFFSET 0.000000 0.000000 0.000000
					}
				}
			}
		}
	}
	JOINT rhip
	{
		OFFSET -0.060310 -0.090513 -0.013543
		CHANNELS 3 Zrotation Yrotation Xrotation
		JOINT rknee
		{
			OFFSET -0.043257 -0.383688 -0.004843
			CHANNELS 3 Zrotation Yrotation Xrotation
			JOINT rankle
			{
				OFFSET 0.019056 -0.420046 -0.034562
				CHANNELS 3 Zrotation Yrotation Xrotation
				JOINT rtoe
				{
					OFFSET -0.034840 -0.062106 0.130323
					CHANNELS 3 Zrotation Yrotation Xrotation
					End Site
					{
						OFFSET 0.000000 0.000000 0.000000
					}
				}
			}
		}
	}
	JOINT lowerback
	{
		OFFSET 0.004439 0.124404 -0.038385
		CHANNELS 3 Zrotation Yrotation Xrotation
		JOINT upperback
		{
			OFFSET 0.004488 0.137956 0.026820
			CHANNELS 3 Zrotation Yrotation Xrotation
			JOINT chest
			{
				OFFSET -0.002265 0.056032 0.002855
				CHANNELS 3 Zrotation Yrotation Xrotation
				JOINT lowerneck
				{
					OFFSET -0.013390 0.211636 -0.033468
					CHANNELS 3 Zrotation Yrotation Xrotation
					JOINT upperneck
					{
						OFFSET 0.010113 0.088937 0.050410
						CHANNELS 3 Zrotation Yrotation Xrotation
						End Site
						{
							OFFSET 0.000000 0.000000 0.000000
						}
					}
				}
				JOINT lclavicle
				{
					OFFSET 0.071702 0.114000 -0.018898
					CHANNELS 3 Zrotation Yrotation Xrotation
					JOINT lshoulder
					{
						OFFSET 0.122921 0.045205 -0.019046
						CHANNELS 3 Zrotation Yrotation Xrotation
						JOINT lelbow
						{
							OFFSET 0.255332 -0.015649 -0.022946
							CHANNELS 3 Zrotation Yrotation Xrotation
							JOINT lwrist
							{
								OFFSET 0.265709 0.012698 -0.007375
								CHANNELS 3 Zrotation Yrotation Xrotation
								End Site
								{
									OFFSET 0.000000 0.000000 0.000000
								}
							}
						}
					}
				}
				JOINT rclavicle
				{
					OFFSET -0.082954 0.112472 -0.023707
					CHANNELS 3 Zrotation Yrotation Xrotation
					JOINT rshoulder
					{
						OFFSET -0.113228 0.046853 -0.008472
						CHANNELS 3 Zrotation Yrotation Xrotation
						JOINT relbow
						{
							OFFSET -0.260127 -0.014369 -0.031269
							CHANNELS 3 Zrotation Yrotation Xrotation
							JOINT rwrist
							{
								OFFSET -0.269108 0.006794 -0.006027
								CHANNELS 3 Zrotation Yrotation Xrotation
								End Site
								{
									OFFSET 0.000000 0.000000 0.000000
								}
							}
						}
					}
				}
			}
		}
	}
}
MOTION
Frames: 16
Frame Time: 0.033333
-0.090352 -1.653945 0.990280 178.751623 1.802422 89.777604 3.106564 3.580742 5.648903 -2.022413 -0.025940 -4.217634 0.258608 12.178474 -10.264358 0.000000 -0.000000 0.000000 -5.118647 -4.085060 0.758427 -0.073414 -2.498582 1.377666 6.675752 -5.306837 -5.011222 0.000000 -0.000000 0.000000 -0.689779 1.217808 -0.343746 1.205708 -1.764246 1.257438 1.117025 -1.331355 -3.022676 1.576655 7.237272 1.866351 2.703146 5.835224 5.430962 -28.810176 6.308020 2.324879 -54.691400 -0.858133 11.720265 6.090833 -31.810979 2.987340 -2.116355 -25.273847 -8.964459 29.881471 0.656757 1.685741 57.648837 0.697535 13.514339 -11.631864 18.251507 -4.918039 0.816844 12.452414 -3.017892 
-0.091228 -1.652774 0.990099 178.288733 1.800504 89.672232 3.008027 3.820363 6.093211 -1.986372 0.034101 -4.622939 0.331087 12.266714 -10.308295 0.000000 -0.000000 0.000000 -5.209063 -3.978815 0.833527 -0.090969 -2.410226 1.499121 6.662411 -5.032045 -4.883433 0.000000 -0.000000 0.000000 -0.683018 1.254217 -0.619651 1.188821 -1.525754 1.798418 1.028095 -1.241876 -3.140363 1.095419 5.936323 2.292305 2.575389 4.083464 4.944939 -28.971590 6.387625 2.407906 -54.554994 -0.796847 11.515680 6.471553 -31.655296 2.207230 -2.789811 -25.301897 -8.228875 30.079524 0.901142 1.631919 57.598650 0.478588 13.406350 -11.727839 18.411943 -4.872526 1.111715 12.563524 -2.621313 
-0.091714 -1.652569 0.989707 178.278698 1.875942 89.641259 3.130520 3.784789 6.009366 -2.121700 0.174757 -4.367233 0.161224 12.163314 -10.287127 0.000000 -0.000000 0.000000 -5.191770 -3.959811 0.949487 -0.053918 -2.518992 1.340776 6.688198 -5.038797 -4.918614 0.000000 -0.000000 0.000000 -0.676648 1.192717 -0.708762 1.212882 -1.680773 2.003724 0.906080 -1.159234 -3.061603 0.791266 5.059776 2.552981 2.498419 2.634617 4.875380 -28.814620 6.462731 2.538904 -54.748501 -1.000617 11.403931 6.807124 -31.365315 1.880257 -3.038953 -25.466646 -8.282466 30.216307 1.040235 1.585545 57.676659 0.580555 13.245823 -11.860541 18.385683 -5.117732 0.945210 12.567314 -2.731733 
-0.092631 -1.653076 0.989615 178.428211 1.899316 89.732363 3.093971 3.579426 5.728695 -2.132254 0.194725 -4.099364 0.429219 12.206951 -10.478741 0.000000 -0.000000 0.000000 -5.204821 -3.905428 0.858532 -0.052430 -2.638547 1.280906 6.718130 -5.165268 -4.825836 0.000000 -0.000000 0.000000 -0.791239 1.231256 -0.541861 1.200788 -1.687654 1.775467 0.978372 -1.344904 -3.055665 0.502315 4.164752 2.754126 2.338470 1.819497 5.024259 -28.638628 6.600097 2.599071 -55.012459 -1.117218 11.547098 6.928305 -31.070518 1.903538 -3.427524 -25.344300 -8.146769 29.907849 0.836418 1.288661 57.959754 0.596534 13.346430 -11.597380 18.326593 -4.955593 1.391105 12.526155 -2.991456 
-0.093453 -1.652853 0.989759 178.288869 1.924264 89.716672 3.007440 3.576453 5.861225 -2.065036 0.268029 -4.254636 0.365319 12.199065 -10.402511 0.000000 -0.000000 0.000000 -5.203464 -3.867675 0.827171 -0.081299 -2.611361 1.287310 6.772654 -5.211390 -4.754567 0.000000 -0.000000 0.000000 -0.683943 1.169449 -0.646841 1.194146 -1.732533 1.922470 0.848698 -1.386265 -2.897364 0.189269 3.607981 2.706141 2.285893 0.858769 4.675368 -28.670132 6.707472 2.608212 -54.953793 -1.005143 11.463495 6.940694 -31.052150 1.741444 -3.548930 -25.325736 -8.049859 29.961160 1.010321 1.273032 58.038955 0.659511 13.321247 -11.612675 18.397560 -4.829427 1.399912 12.419651 -2.670298 
-0.094334 -1.652195 0.989699 178.224922 1.956882 89.582543 2.971686 3.562076 6.093714 -2.049730 0.369865 -4.275985 0.566564 12.239893 -10.603354 0.000000 -0.000000 0.000000 -5.240252 -3.924687 0.998528 -0.078919 -2.512182 1.330396 6.746277 -5.123060 -4.960868 0.000000 -0.000000 0.000000 -0.672172 1.272424 -0.413632 1.119670 -1.647928 1.903945 0.862515 -1.532958 -2.993807 -0.009962 2.814318 2.758467 2.186373 0.312637 4.834680 -28.814843 6.631134 2.895084 -54.757999 -0.852400 11.404346 6.944973 -31.276586 1.908856 -3.354529 -25.262465 -8.181482 29.961180 0.993813 1.224532 58.037828 0.535992 13.250390 -11.563312 18.381758 -4.893173 1.176362 12.427250 -2.960816 
-0.094976 -1.652587 0.989521 178.318710 1.913885 89.602489 2.843624 3.525669 6.029682 -1.967884 0.300817 -4.282994 0.805243 12.209186 -10.655741 0.000000 -0.000000 0.000000 -5.294626 -3.940884 0.925220 -0.133667 -2.611550 1.387129 6.751428 -5.104404 -4.849405 0.000000 -0.000000 0.000000 -0.600953 1.081948 -0.305751 1.105102 -1.957227 2.108512 0.603863 -1.446901 -3.069970 -0.176459 2.247333 2.763162 2.055292 -0.505144 4.480839 -28.764529 6.801342 2.789620 -54.711382 -0.781443 11.420535 7.136744 -31.357037 1.574687 -3.634680 -25.205117 -7.943813 30.082892 1.291432 1.204339 58.137653 0.641934 13.261574 -11.655147 18.251812 -5.067009 1.200446 12.571090 -2.852032 
-0.095291 -1.652408 0.989577 178.201097 2.001442 89.719875 2.946067 3.546465 5.936450 -2.074752 0.494257 -4.243358 0.608039 12.136331 -10.555037 0.000000 -0.000000 0.000000 -5.139686 -3.843254 0.766227 -0.246568 -2.591339 1.391477 6.657988 -5.137070 -4.804537 0.000000 -0.000000 0.000000 -0.559828 1.080576 -0.030817 1.087063 -1.861777 1.579913 0.539626 -1.392072 -2.950230 -0.190737 1.799958 2.311182 2.104848 -1.338141 4.504547 -28.781735 6.917289 2.549490 -54.657758 -0.532397 11.652453 7.237051 -31.247982 1.569020 -3.935255 -25.008783 -7.798106 30.235459 1.035769 0.810818 58.039491 0.220357 13.368706 -11.619825 18.440877 -4.842742 1.623397 12.494016 -2.839476 
-0.095689 -1.652358 0.989717 177.992293 1.967446 89.743722 2.865149 3.728572 5.954789 -2.067603 0.536263 -4.231402 0.504580 12.113984 -10.614215 0.000000 -0.000000 0.000000 -5.162705 -3.753029 0.721702 -0.322568 -2.603739 1.378663 6.641643 -5.100940 -4.790099 0.000000 -0.000000 0.000000 -0.637324 1.069087 -0.114391 1.055699 -1.773324 1.778611 0.498489 -1.287675 -2.965927 -0.383817 1.095106 2.476817 2.032567 -2.110885 3.899409 -28.820833 6.963278 2.554384 -54.658209 -0.615151 11.542133 7.282240 -31.233738 1.433002 -4.249367 -24.965528 -7.491700 30.285792 1.000977 0.807323 58.041225 0.173368 13.188271 -11.598991 18.651487 -4.803892 1.794487 12.410869 -2.698212 
-0.095611 -1.652566 0.989740 178.051565 1.907360 89.809505 2.821391 3.693710 5.800308 -2.120057 0.526989 -4.095868 0.631423 12.063605 -10.825968 0.000000 -0.000000 0.000000 -5.187573 -3.766119 0.666940 -0.368194 -2.681302 1.367330 6.583633 -5.058376 -4.799212 0.000000 -0.000000 0.000000 -0.965535 1.241273 -0.173957 1.172425 -1.705965 2.103842 0.619038 -1.461792 -3.183985 -0.589896 0.559390 2.512098 1.853605 -2.871075 3.562514 -28.965210 7.006438 2.453403 -54.585876 -0.633811 11.575239 7.186488 -31.352785 1.373599 -4.225128 -24.949440 -7.264290 30.328056 0.948342 0.709711 57.971074 -0.021491 13.145419 -11.588539 18.811900 -4.881354 1.904628 12.538739 -2.435547 
-0.095734 -1.651555 0.989445 177.591709 1.845684 89.777056 2.629417 3.911680 6.252726 -1.961335 0.552201 -4.680094 0.658974 12.251175 -10.765046 0.000000 -0.000000 0.000000 -5.310460 -3.617682 0.727854 -0.333294 -2.477374 1.257484 6.685081 -4.946699 -4.724900 0.000000 -0.000000 0.000000 -0.941435 1.161604 -0.531833 1.099845 -1.532734 2.544381 0.507299 -1.334986 -2.998775 -0.662917 0.180944 2.220898 1.722380 -3.611722 3.119249 -28.932633 7.130669 2.406783 -54.543428 -0.678247 11.440968 6.931909 -31.568478 1.453328 -4.099045 -25.027622 -7.354934 30.430359 1.155010 0.795849 57.960317 0.136752 13.088238 -11.507029 18.656177 -5.016349 1.365498 12.387166 -2.421593 
-0.095738 -1.652292 0.989141 177.790356 1.879502 89.999894 2.721791 3.806225 5.743355 -2.054534 0.535095 -4.274599 0.421163 12.203255 -10.657156 0.000000 -0.000000 0.000000 -5.253733 -3.643927 0.473438 -0.311078 -2.454677 1.308847 6.672484 -5.235715 -4.695017 0.000000 -0.000000 0.000000 -1.167108 1.342111 -0.582858 1.254145 -1.466029 2.738728 0.624528 -1.632352 -3.049643 -0.730951 -0.143296 1.611722 1.813252 -4.286604 2.770681 -28.996058 6.813555 2.411348 -54.851014 -0.845130 11.748329 7.458495 -31.307797 0.982037 -4.203470 -25.058163 -6.963757 30.466794 1.301148 0.571462 57.833457 -0.149541 13.194322 -11.698719 18.728997 -5.194671 1.394255 12.465749 -2.193968 
-0.095558 -1.652537 0.989259 177.993903 1.947142 90.018342 2.784274 3.631193 5.658990 -1.992970 0.511909 -4.225368 0.507370 12.160237 -10.583581 0.000000 -0.000000 0.000000 -5.133595 -3.685443 0.530260 -0.337728 -2.562026 1.227078 6.649706 -5.277770 -4.658802 0.000000 -0.000000 0.000000 -1.084453 1.297699 -0.278945 1.208141 -1.655388 2.442813 0.600068 -1.672231 -3.028313 -1.003934 -0.620911 1.909058 1.802261 -4.682360 2.418319 -28.903428 6.674910 2.678279 -55.052734 -0.892729 11.649910 7.626546 -31.381981 0.582047 -4.567032 -25.051958 -7.030196 30.406204 1.430955 0.766150 58.026465 -0.166488 13.108838 -11.771565 18.514015 -5.152554 1.598398 12.386462 -2.204034 
-0.095467 -1.651533 0.989356 177.598653 1.908725 89.934450 2.750465 3.907987 5.969921 -2.028648 0.573843 -4.426305 0.368883 12.212988 -10.612100 0.000000 -0.000000 0.000000 -5.211726 -3.540692 0.618681 -0.311138 -2.419946 1.291249 6.649938 -5.102743 -4.649239 0.000000 -0.000000 0.000000 -1.084258 1.340010 -0.512372 1.164172 -1.407184 2.860971 0.553779 -1.560697 -3.053924 -1.141686 -0.851515 1.794735 1.841583 -5.321466 2.015764 -29.104821 6.705811 2.464445 -54.846928 -0.961738 11.543115 7.391958 -31.259565 0.644036 -4.796555 -25.122497 -6.704805 30.585114 1.473038 0.802074 57.884753 -0.204217 13.018503 -11.636994 18.439761 -5.008830 1.258048 12.467363 -1.836249 
-0.095265 -1.652457 0.989451 178.190069 2.023738 89.990920 2.961031 3.623173 5.530149 -2.100949 0.507552 -3.905908 0.363842 12.020661 -10.750103 0.000000 -0.000000 0.000000 -5.014711 -3.755989 0.606460 -0.343187 -2.714534 1.204485 6.535486 -5.284695 -4.661412 0.000000 -0.000000 0.000000 -0.885473 1.150340 -0.026402 1.151615 -1.887942 2.392929 0.381884 -1.553198 -3.031334 -1.302139 -1.297999 1.801932 1.844574 -5.585622 1.856643 -29.185893 6.777658 2.431636 -54.651033 -0.902546 11.578248 7.236025 -31.703284 0.642556 -4.012233 -24.961756 -7.037403 30.659541 1.503414 0.821073 57.933147 -0.172193 12.967533 -11.533300 18.294874 -4.941492 0.868875 12.327088 -1.871767 
-0.094738 -1.652784 0.989420 178.039021 1.989578 90.088790 2.875392 3.584843 5.483228 -2.021013 0.572421 -4.055972 0.631663 12.178694 -10.886169 0.000000 -0.000000 0.000000 -5.032579 -3.563760 0.417368 -0.297662 -2.742899 1.266557 6.470627 -5.246420 -4.705683 0.000000 -0.000000 0.000000 -0.925203 1.046514 0.020267 1.116906 -1.834948 2.473917 0.310044 -1.355033 -3.167941 -1.327211 -1.642944 1.634021 1.788318 -6.193494 1.655995 -29.129252 6.944307 2.248150 -54.792842 -0.990685 11.626786 7.429872 -31.646760 0.555312 -4.579020 -24.954091 -6.719554 30.686982 1.534740 0.712429 58.072115 -0.273704 12.967105 -11.580386 18.252170 -4.905566 1.157881 12.363631 -1.793299 
